<svg xmlns="http://www.w3.org/2000/svg" viewBox="0 0 960 540" width="960" height="540" style="background:#0f172a; font-family: ui-sans-serif, system-ui, -apple-system, BlinkMacSystemFont, 'Segoe UI', Roboto, sans-serif;">
  <defs>
    <linearGradient id="windowGlow" x1="0%" y1="0%" x2="100%" y2="100%">
      <stop offset="0%" stop-color="#1e293b"/>
      <stop offset="100%" stop-color="#0f172a"/>
    </linearGradient>
    <filter id="shadow" x="-2%" y="-2%" width="104%" height="104%">
      <feDropShadow dx="0" dy="8" stdDeviation="12" flood-color="#000" flood-opacity="0.5"/>
    </filter>
  </defs>

  <!-- Desktop Backdrop -->
  <rect width="960" height="540" fill="#0f172a"/>
  
  <!-- App Window Container -->
  <g filter="url(#shadow)">
    <rect x="20" y="20" width="920" height="500" rx="10" fill="#1e293b" stroke="#334155" stroke-width="1.5"/>
    
    <!-- Titlebar -->
    <rect x="20" y="20" width="920" height="42" rx="10" fill="#1e3a5f"/>
    <rect x="20" y="52" width="920" height="10" fill="#1e3a5f"/>
    
    <!-- Window controls -->
    <circle cx="45" cy="41" r="6" fill="#ef4444"/>
    <circle cx="65" cy="41" r="6" fill="#f59e0b"/>
    <circle cx="85" cy="41" r="6" fill="#10b981"/>
    
    <!-- App Badge & Window Title -->
    <text x="120" y="46" fill="#f8fafc" font-size="13" font-weight="600">Shopify Admin</text>
    <text x="320" y="46" fill="#94a3b8" font-size="12">Orders / Unfulfilled Queue</text>
    
    

    <!-- Content Area -->
    <g transform="translate(20, 62)">
      
      <!-- Sidebar -->
      <rect x="0" y="0" width="180" height="458" fill="#0f172a"/>
      <text x="24" y="36" fill="#e2e8f0" font-size="14" font-weight="700">QuickCart Store</text>
      <text x="24" y="80" fill="#38bdf8" font-size="13" font-weight="600">● Orders (14)</text>
      <text x="24" y="115" fill="#94a3b8" font-size="13">Products</text>
      <text x="24" y="150" fill="#94a3b8" font-size="13">Customers</text>
      <text x="24" y="185" fill="#94a3b8" font-size="13">Analytics</text>
      <text x="24" y="220" fill="#94a3b8" font-size="13">Discounts</text>

      <!-- Main Area -->
      <rect x="180" y="0" width="740" height="458" fill="#1e293b"/>
      <text x="210" y="40" fill="#f8fafc" font-size="20" font-weight="700">Incoming Orders</text>
      
      <!-- Filter Bar -->
      <rect x="210" y="60" width="680" height="36" rx="6" fill="#334155"/>
      <text x="225" y="83" fill="#94a3b8" font-size="12">Filter: All · Unfulfilled (1) · Paid (1) · Ready for Invoicing</text>

      <!-- Table Header -->
      <rect x="210" y="110" width="680" height="32" fill="#0f172a" rx="4"/>
      <text x="230" y="131" fill="#94a3b8" font-size="11" font-weight="600">ORDER</text>
      <text x="320" y="131" fill="#94a3b8" font-size="11" font-weight="600">DATE</text>
      <text x="420" y="131" fill="#94a3b8" font-size="11" font-weight="600">CUSTOMER</text>
      <text x="560" y="131" fill="#94a3b8" font-size="11" font-weight="600">TOTAL</text>
      <text x="660" y="131" fill="#94a3b8" font-size="11" font-weight="600">PAYMENT</text>
      <text x="760" y="131" fill="#94a3b8" font-size="11" font-weight="600">FULFILLMENT</text>

      <!-- Target Row #9831 Highlighted -->
      <rect x="210" y="150" width="680" height="52" rx="6" fill="#1e40af" stroke="#60a5fa" stroke-width="2"/>
      <text x="230" y="181" fill="#ffffff" font-size="13" font-weight="700">#9831</text>
      <text x="320" y="181" fill="#e2e8f0" font-size="12">Today, 2:14 PM</text>
      <text x="420" y="181" fill="#ffffff" font-size="13" font-weight="600">David Kramer</text>
      <text x="560" y="181" fill="#34d399" font-size="13" font-weight="700">$142.50</text>
      <rect x="655" y="166" width="65" height="22" rx="4" fill="#065f46"/>
      <text x="672" y="181" fill="#34d399" font-size="11" font-weight="600">PAID</text>
      <rect x="755" y="166" width="105" height="22" rx="4" fill="#991b1b"/>
      <text x="767" y="181" fill="#fca5a5" font-size="11" font-weight="600">UNFULFILLED</text>

      <!-- Computer Vision Annotation Box -->
      <rect x="205" y="145" width="690" height="62" rx="8" fill="none" stroke="#e11d48" stroke-width="2" stroke-dasharray="6,4"/>
      <rect x="730" y="135" width="165" height="20" rx="4" fill="#e11d48"/>
      <text x="740" y="149" fill="#ffffff" font-size="10" font-weight="700">CV: TARGET_ORDER_CLICK</text>
      
    </g>
  </g>
</svg>